<svg xmlns="http://www.w3.org/2000/svg" width="1280" height="520" viewBox="0 0 1280 520" role="img" aria-labelledby="title desc" text-rendering="geometricPrecision">
  <title id="title">Learning Space Manager</title>
  <desc id="desc">A dark blue illustration of a live shared study room with tables, seats and a focus timer.</desc>
  <defs>
    <linearGradient id="background" x1="0" y1="0" x2="1" y2="1">
      <stop offset="0" stop-color="#0b0f16"/>
      <stop offset="0.55" stop-color="#121a28"/>
      <stop offset="1" stop-color="#0c1421"/>
    </linearGradient>
    <linearGradient id="brand" x1="0" y1="0" x2="1" y2="1">
      <stop offset="0" stop-color="#69a2ff"/>
      <stop offset="1" stop-color="#3976ed"/>
    </linearGradient>
    <linearGradient id="glass" x1="0" y1="0" x2="0" y2="1">
      <stop offset="0" stop-color="#1c2738" stop-opacity="0.96"/>
      <stop offset="1" stop-color="#111925" stop-opacity="0.96"/>
    </linearGradient>
    <radialGradient id="glow" cx="0.24" cy="0.5" r="0.7">
      <stop offset="0" stop-color="#4f8cff" stop-opacity="0.24"/>
      <stop offset="1" stop-color="#4f8cff" stop-opacity="0"/>
    </radialGradient>
    <pattern id="grid" width="28" height="28" patternUnits="userSpaceOnUse">
      <path d="M28 0H0V28" fill="none" stroke="#8ba0bd" stroke-opacity="0.09" stroke-width="1"/>
    </pattern>
    <filter id="shadow" x="-30%" y="-30%" width="160%" height="180%" color-interpolation-filters="sRGB">
      <feGaussianBlur in="SourceAlpha" stdDeviation="18" result="blur"/>
      <feOffset in="blur" dx="0" dy="14" result="offsetBlur"/>
      <feFlood flood-color="#000" flood-opacity="0.35" result="shadowColor"/>
      <feComposite in="shadowColor" in2="offsetBlur" operator="in" result="shadow"/>
      <feMerge>
        <feMergeNode in="shadow"/>
        <feMergeNode in="SourceGraphic"/>
      </feMerge>
    </filter>
    <clipPath id="appClip" clipPathUnits="userSpaceOnUse">
      <rect width="500" height="414" rx="27"/>
    </clipPath>
  </defs>

  <rect width="1280" height="520" rx="32" fill="url(#background)"/>
  <rect width="1280" height="520" rx="32" fill="url(#glow)"/>
  <path d="M0 439C211 355 320 527 535 427S855 364 1280 444V520H0Z" fill="#4f8cff" opacity="0.035"/>

  <g transform="translate(74 88)">
    <g filter="url(#shadow)">
      <rect width="86" height="86" rx="24" fill="url(#brand)"/>
      <path d="M21 31a8 8 0 0 1 8-8h14v40H29a8 8 0 0 1-8-8V31Zm44-8a8 8 0 0 1 8 8v24a8 8 0 0 1-8 8H51V23h14Z" fill="white"/>
      <rect x="46" y="23" width="4" height="40" rx="2" fill="#4f8cff"/>
    </g>
    <text x="0" y="145" fill="#f3f7fc" font-family="Inter,Segoe UI,Arial,sans-serif" font-size="54" font-weight="760" letter-spacing="-1.5">Learning Space</text>
    <text x="0" y="203" fill="#6fa5ff" font-family="Inter,Segoe UI,Arial,sans-serif" font-size="54" font-weight="760" letter-spacing="-1.5">Manager</text>
    <text x="2" y="249" fill="#9aabc0" font-family="Inter,Segoe UI,Arial,sans-serif" font-size="21">Claim a seat. See who is coming. Focus together.</text>

    <g transform="translate(0 288)" font-family="Inter,Segoe UI,Arial,sans-serif" font-size="13" font-weight="700" letter-spacing="1">
      <rect width="115" height="34" rx="17" fill="#4f8cff" fill-opacity="0.13" stroke="#4f8cff" stroke-opacity="0.45"/>
      <circle cx="18" cy="17" r="4" fill="#55d98d"/>
      <text x="31" y="17" fill="#b9cbea" dominant-baseline="middle">LIVE ROOM</text>
      <rect x="128" width="126" height="34" rx="17" fill="#4f8cff" fill-opacity="0.13" stroke="#4f8cff" stroke-opacity="0.45"/>
      <text x="191" y="17" fill="#b9cbea" text-anchor="middle" dominant-baseline="middle">SHARED FOCUS</text>
      <rect x="267" width="74" height="34" rx="17" fill="#4f8cff" fill-opacity="0.13" stroke="#4f8cff" stroke-opacity="0.45"/>
      <text x="304" y="17" fill="#b9cbea" text-anchor="middle" dominant-baseline="middle">PWA</text>
    </g>
  </g>

  <g transform="translate(706 53)" filter="url(#shadow)">
    <rect width="500" height="414" rx="27" fill="url(#glass)" stroke="#34445a"/>
    <rect width="500" height="54" fill="#202c3d" clip-path="url(#appClip)"/>
    <circle cx="28" cy="27" r="5" fill="#ef6471"/>
    <circle cx="46" cy="27" r="5" fill="#f5b74f"/>
    <circle cx="64" cy="27" r="5" fill="#50cf88"/>
    <text x="90" y="27" fill="#dfe8f4" font-family="Inter,Segoe UI,Arial,sans-serif" font-size="15" font-weight="650" dominant-baseline="middle">Study room · CAB</text>
    <rect x="369" y="15" width="105" height="25" rx="12.5" fill="#2b3b50"/>
    <circle cx="386" cy="27.5" r="4" fill="#50cf88"/>
    <text x="398" y="27.5" fill="#adbed2" font-family="Inter,Segoe UI,Arial,sans-serif" font-size="12" dominant-baseline="middle">3 here · 2 free</text>

    <rect x="18" y="69" width="464" height="327" rx="20" fill="#0d141f"/>
    <rect x="18" y="69" width="464" height="327" rx="20" fill="url(#grid)"/>

    <g transform="translate(56 112)" font-family="Inter,Segoe UI,Arial,sans-serif">
      <rect width="184" height="76" rx="15" fill="#e9eef5"/>
      <path d="M15 0H92V76H15A15 15 0 0 1 0 61V15A15 15 0 0 1 15 0Z" fill="#4f8cff"/>
      <path d="M92 0v76" stroke="#b8c4d2" stroke-width="2"/>
      <circle cx="46" cy="29" r="10" fill="#eaf2ff"/>
      <text x="46" y="55" fill="white" font-size="12" font-weight="700" text-anchor="middle">Anna</text>
      <circle cx="138" cy="29" r="10" fill="none" stroke="#9d6eff" stroke-width="4"/>
      <text x="138" y="55" fill="#536277" font-size="12" font-weight="700" text-anchor="middle">Leo · 10:30</text>
      <rect x="65" y="-13" width="54" height="24" rx="12" fill="#1f2b3d" stroke="#3a4a60"/>
      <text x="92" y="-1" fill="#c5d3e4" font-size="11" font-weight="700" text-anchor="middle" dominant-baseline="middle">T1</text>
    </g>

    <g transform="translate(264 112)" font-family="Inter,Segoe UI,Arial,sans-serif">
      <rect width="164" height="76" rx="15" fill="#e9eef5"/>
      <path d="M82 0H149A15 15 0 0 1 164 15V61A15 15 0 0 1 149 76H82Z" fill="#35c47b"/>
      <path d="M82 0v76" stroke="#b8c4d2" stroke-width="2"/>
      <circle cx="41" cy="29" r="10" fill="none" stroke="#d7e0ea" stroke-width="4"/>
      <text x="41" y="55" fill="#536277" font-size="12" font-weight="700" text-anchor="middle">Free</text>
      <circle cx="123" cy="29" r="10" fill="#edfff5"/>
      <text x="123" y="55" fill="white" font-size="12" font-weight="700" text-anchor="middle">Mia</text>
      <rect x="55" y="-13" width="54" height="24" rx="12" fill="#1f2b3d" stroke="#3a4a60"/>
      <text x="82" y="-1" fill="#c5d3e4" font-size="11" font-weight="700" text-anchor="middle" dominant-baseline="middle">T2</text>
    </g>

    <g transform="translate(56 225)" font-family="Inter,Segoe UI,Arial,sans-serif">
      <rect width="372" height="112" rx="18" fill="#172232" stroke="#35465d"/>
      <circle cx="57" cy="56" r="34" fill="none" stroke="#2c3a4d" stroke-width="7"/>
      <path d="M57 22a34 34 0 1 1-31 48" fill="none" stroke="#4f8cff" stroke-width="7" stroke-linecap="round"/>
      <text x="57" y="53" fill="#f0f5fb" font-size="15" font-weight="750" text-anchor="middle">42:18</text>
      <text x="57" y="70" fill="#8294aa" font-size="9" text-anchor="middle">FOCUS</text>
      <text x="112" y="43" fill="#f0f5fb" font-size="15" font-weight="700">Focus together</text>
      <text x="112" y="65" fill="#8fa1b6" font-size="12">Anna, Mia and Leo are in this round</text>
      <g transform="translate(112 78)">
        <circle cx="8" cy="8" r="8" fill="#4f8cff"/>
        <circle cx="28" cy="8" r="8" fill="#35c47b"/>
        <circle cx="48" cy="8" r="8" fill="#9d6eff"/>
        <rect x="69" y="0" width="76" height="17" rx="8.5" fill="#27364a"/>
        <text x="107" y="8.5" fill="#afbed0" font-size="9" font-weight="700" text-anchor="middle" dominant-baseline="middle">JOINED ✓</text>
      </g>
    </g>
  </g>

  <rect x="0.75" y="0.75" width="1278.5" height="518.5" rx="31.25" fill="none" stroke="#334155" stroke-width="1.5"/>
</svg>
